<mxfile host="app.diagrams.net" modified="2025-01-06T14:37:09.735Z" agent="Mozilla/5.0 (Windows NT 10.0; Win64; x64) AppleWebKit/537.36 (KHTML, like Gecko) Chrome/128.0.0.0 Safari/537.36 OPR/114.0.0.0" version="24.7.1" etag="-M_JWdPyTtDUqzkh88wP" type="github">
  <diagram name="Page-1" id="eWWWpH5on5edJ62G0c14">
    <mxGraphModel>
      <root>
        <mxCell id="0" />
        <mxCell id="1" parent="0" />
      </root>
    </mxGraphModel>
  </diagram>
</mxfile>
